<svg width="1028" height="984" viewBox="0 0 1028 984" fill="none" xmlns="http://www.w3.org/2000/svg">
<path d="M89.7415 984C191.467 750.044 127.113 692.09 58.4415 526.201C-18.7971 339.618 -30.0864 111.467 89.7415 0H292.024C199.292 208.844 216.227 351.672 292.024 394.964C292.024 394.964 327.295 419.051 435.444 394.964C543.593 370.876 735.831 327.697 673.815 221.911C617.054 155.099 742.722 65.3349 796.212 0H997.093C937.296 126.806 870.375 165.326 898.404 251.113C934.259 399.736 915.923 415.644 648.938 496.545C648.938 496.545 937.88 617.443 997.21 690.164C1056.54 762.884 1030.26 891.395 917.208 984H723.802C795.862 911.507 851.922 841.286 796.329 787.2C669.727 686.187 586.768 616.824 415.04 591.764C381.143 586.817 327.295 591.764 327.295 591.764C422.246 677.892 385.457 882.191 292.024 983.886H89.7415V984Z" fill="#172101"/>
</svg>
