<svg width="57" height="57" viewBox="0 0 57 57" fill="none" xmlns="http://www.w3.org/2000/svg">
<path d="M40.5455 20.6709C40.5455 23.4649 39.9543 25.4709 38.817 27.9709L38.183 29.3709C37.0477 31.8709 36.4545 34.6269 36.4545 37.4209V44.6709C36.4545 45.2013 36.239 45.71 35.8554 46.0851C35.4719 46.4602 34.9516 46.6709 34.4091 46.6709H22.1364C21.5939 46.6709 21.0736 46.4602 20.69 46.0851C20.3064 45.71 20.0909 45.2013 20.0909 44.6709V37.4209C20.0974 34.6488 19.5086 31.9063 18.3625 29.3709L17.7284 27.9709C16.5932 25.4709 16 23.4649 16 20.6709M40.5455 20.6709V12.6709C40.5455 12.1405 40.33 11.6318 39.9464 11.2567C39.5628 10.8816 39.0425 10.6709 38.5 10.6709H18.0455C17.503 10.6709 16.9827 10.8816 16.5991 11.2567C16.2155 11.6318 16 12.1405 16 12.6709V20.6709M40.5455 20.6709H16" stroke="#d4af37" stroke-width="2.81742" stroke-linecap="round" stroke-linejoin="round"/>
</svg>
