<svg width="56" height="57" viewBox="0 0 56 57" fill="none" xmlns="http://www.w3.org/2000/svg">
<path d="M30.0993 31.4241L32.3774 10.9209H12.6337L15.6712 38.2584H24.0243" stroke="#d4af37" stroke-width="2.82" stroke-linecap="round" stroke-linejoin="round"/>
<path d="M30.8586 18.0134C29.9474 17.4515 29.0058 16.9958 27.8211 16.9958C24.7836 16.9958 23.2649 20.0334 20.2274 20.0334C17.7366 20.0334 16.2786 17.9982 14.1524 17.254" stroke="#d4af37" stroke-width="2.81742" stroke-linecap="round" stroke-linejoin="round"/>
<path d="M35.4046 35.421L38.1268 27.921M38.1269 28.421C39.413 29.667 41.4046 29.921 43.4046 29.421M40.1269 43.1686C37.8551 46.8978 32.8196 47.9753 28.8798 45.5752C24.94 43.175 23.5878 38.2062 25.8596 34.477C28.1315 30.7478 32.8372 30.5208 36.777 32.921C40.7168 35.3211 42.3988 39.4394 40.1269 43.1686Z" stroke="#d4af37" stroke-width="2.81742" stroke-linecap="round"/>
</svg>
