<svg width="56" height="57" viewBox="0 0 56 57" fill="none" xmlns="http://www.w3.org/2000/svg">
<path d="M30.5 13.8005H36.5M30.5 15.8005V11.8005M36.5 15.8005V11.8005M28 26.3005L29.9 23.6005C30.2895 23.0812 30.5 22.4496 30.5 21.8005V7.80054H36.5V21.8005C36.5 22.4496 36.7105 23.0812 37.1 23.6005L40.7 28.4005C41.8684 29.9584 42.5 31.8532 42.5 33.8005V45.8005C42.5 46.331 42.2893 46.8397 41.9142 47.2148C41.5391 47.5898 41.0304 47.8005 40.5 47.8005H26.5C25.9696 47.8005 25.4609 47.5898 25.0858 47.2148C24.7107 46.8397 24.5 46.331 24.5 45.8005V39.8005" stroke="#803308" stroke-width="2.82" stroke-linecap="round" stroke-linejoin="round"/>
<path d="M25.4897 37.8487L31.3624 43.0277C31.8074 43.4201 32.3901 43.6197 32.9823 43.5826C33.5745 43.5454 34.1276 43.2745 34.5201 42.8295C34.9125 42.3845 35.1121 41.8018 35.0749 41.2096C35.0378 40.6175 34.7669 40.0643 34.3219 39.6719L28.4492 34.4928M32.1333 28.7932C28.3798 25.4831 22.6876 25.8055 19.4189 29.512C16.1502 33.2185 16.542 38.9064 20.2955 42.2165C20.4958 42.3931 20.758 42.4829 21.0245 42.4662C21.2909 42.4495 21.5399 42.3276 21.7165 42.1273L32.2225 30.2142C32.3991 30.0139 32.4889 29.7517 32.4722 29.4852C32.4554 29.2188 32.3335 28.9698 32.1333 28.7932Z" stroke="#803308" stroke-width="2.82" stroke-linecap="round" stroke-linejoin="round"/>
</svg>
