<svg width="56" height="57" viewBox="0 0 56 57" fill="none" xmlns="http://www.w3.org/2000/svg">
<path d="M22.9994 18.4209V19.8309C23.1509 19.8309 23.3015 19.8065 23.4453 19.7585L22.9994 18.4209ZM32.9994 18.4209L32.5535 19.7585C32.6973 19.8065 32.8478 19.8309 32.9994 19.8309V18.4209ZM24.9996 10.4211L26.4096 10.4208L24.9996 10.4211ZM24.9995 14.4208L26.4095 14.4212L24.9995 14.4208ZM17.59 20.4209V45.9209H20.41V20.4209H17.59ZM21 49.3309H35V46.5109H21V49.3309ZM38.41 45.9209V20.4209H35.59V45.9209H38.41ZM22.9994 17.0109H21V19.8309H22.9994V17.0109ZM25.5535 16.0833L22.5535 17.0833L23.4453 19.7585L26.4453 18.7585L25.5535 16.0833ZM27.4094 17.4209V15.4208H24.5894V17.4209H27.4094ZM25.9996 10.8309H29.9994V8.0109H25.9996V10.8309ZM29.9994 16.0109H25.9994V18.8309H29.9994V16.0109ZM28.5894 15.4209V17.4209H31.4094V15.4209H28.5894ZM35 17.0109H32.9994V19.8309H35V17.0109ZM33.4453 17.0833L30.4453 16.0833L29.5535 18.7585L32.5535 19.7585L33.4453 17.0833ZM26.4095 14.4212L26.41 12.6713L23.59 12.6705L23.5895 14.4204L26.4095 14.4212ZM26.41 12.6706L26.4096 10.4208L23.5896 10.4214L23.59 12.6712L26.41 12.6706ZM29.5894 10.4209V12.6709H32.4094V10.4209H29.5894ZM29.5894 12.6709V14.4209H32.4094V12.6709H29.5894ZM25 14.0809H30.9994V11.2609H25V14.0809ZM30.4994 16.3309C31.5543 16.3309 32.4094 15.4758 32.4094 14.4209H29.5894C29.5894 13.9183 29.9968 13.5109 30.4994 13.5109V16.3309ZM29.9994 10.8309C29.773 10.8309 29.5894 10.6473 29.5894 10.4209H32.4094C32.4094 9.08989 31.3304 8.0109 29.9994 8.0109V10.8309ZM25.9996 8.0109C24.6684 8.0109 23.5893 9.09017 23.5896 10.4214L26.4096 10.4208C26.4096 10.6473 26.226 10.8309 25.9996 10.8309V8.0109ZM25.4995 13.5109C26.0022 13.5109 26.4097 13.9185 26.4095 14.4212L23.5895 14.4204C23.5892 15.4755 24.4444 16.3309 25.4995 16.3309V13.5109ZM38.41 20.4209C38.41 18.5376 36.8833 17.0109 35 17.0109V19.8309C35.3258 19.8309 35.59 20.095 35.59 20.4209H38.41ZM35 49.3309C36.8833 49.3309 38.41 47.8042 38.41 45.9209H35.59C35.59 46.2467 35.3258 46.5109 35 46.5109V49.3309ZM27.4094 15.4208C27.4094 14.366 26.5543 13.5109 25.4995 13.5109V16.3309C24.9968 16.3309 24.5894 15.9234 24.5894 15.4208H27.4094ZM17.59 45.9209C17.59 47.8042 19.1167 49.3309 21 49.3309V46.5109C20.6742 46.5109 20.41 46.2467 20.41 45.9209H17.59ZM30.4994 13.5109C29.4445 13.5109 28.5894 14.366 28.5894 15.4209H31.4094C31.4094 15.9235 31.002 16.3309 30.4994 16.3309V13.5109ZM20.41 20.4209C20.41 20.095 20.6742 19.8309 21 19.8309V17.0109C19.1167 17.0109 17.59 18.5376 17.59 20.4209H20.41Z" fill="#803308"/>
<path d="M33 24.9209V39.9209C33 40.4732 32.5523 40.9209 32 40.9209H24C23.4477 40.9209 23 40.4732 23 39.9209V24.9209C23 24.3686 23.4477 23.9209 24 23.9209H24.5H32C32.5523 23.9209 33 24.3686 33 24.9209Z" stroke="#803308" stroke-width="2"/>
</svg>
