<svg width="37" height="37" viewBox="0 0 37 37" fill="none" xmlns="http://www.w3.org/2000/svg">
<path d="M26.5746 13.1239C26.5746 14.9068 26.1974 16.1869 25.4717 17.7822L25.067 18.6755C24.3426 20.2709 23.9641 22.0295 23.9641 23.8124V28.4388C23.9641 28.7773 23.8266 29.1019 23.5818 29.3412C23.337 29.5806 23.005 29.7151 22.6589 29.7151H14.8274C14.4812 29.7151 14.1492 29.5806 13.9044 29.3412C13.6596 29.1019 13.5221 28.7773 13.5221 28.4388V23.8124C13.5263 22.0435 13.1505 20.2935 12.4192 18.6755L12.0146 17.7822C11.2901 16.1869 10.9116 14.9068 10.9116 13.1239M26.5746 13.1239V8.01892C26.5746 7.68044 26.4371 7.35582 26.1923 7.11648C25.9475 6.87714 25.6155 6.74268 25.2694 6.74268H12.2169C11.8707 6.74268 11.5387 6.87714 11.2939 7.11648C11.0491 7.35582 10.9116 7.68044 10.9116 8.01892V13.1239M26.5746 13.1239H10.9116" stroke="#d4af37" stroke-width="1.79786" stroke-linecap="round" stroke-linejoin="round"/>
</svg>
