<svg width="37" height="37" viewBox="0 0 37 37" fill="none" xmlns="http://www.w3.org/2000/svg">
<path d="M19.983 19.9859L21.4368 6.90234H8.83783L10.7761 24.347H16.1064" stroke="#803308" stroke-width="1.7995" stroke-linecap="round" stroke-linejoin="round"/>
<path d="M20.4675 11.4284C19.886 11.0698 19.2852 10.7791 18.5292 10.7791C16.5909 10.7791 15.6218 12.7174 13.6835 12.7174C12.0941 12.7174 11.1637 11.4187 9.80689 10.9438" stroke="#803308" stroke-width="1.79786" stroke-linecap="round" stroke-linejoin="round"/>
<path d="M23.3687 22.5363L25.1058 17.7504M25.1058 18.0694C25.9265 18.8645 27.1974 19.0266 28.4737 18.7075M26.3821 27.4802C24.9324 29.8599 21.7191 30.5475 19.205 29.0159C16.691 27.4843 15.8281 24.3136 17.2778 21.9339C18.7275 19.5542 21.7304 19.4094 24.2444 20.941C26.7585 22.4725 27.8318 25.1005 26.3821 27.4802Z" stroke="#803308" stroke-width="1.79786" stroke-linecap="round"/>
</svg>
