<svg width="36" height="37" viewBox="0 0 36 37" fill="none" xmlns="http://www.w3.org/2000/svg">
<path d="M19.7281 8.74011H23.5569M19.7281 10.0163V7.46386M23.5569 10.0163V7.46386M18.1328 16.7166L19.3453 14.9937C19.5938 14.6623 19.7281 14.2593 19.7281 13.8451V4.91138H23.5569V13.8451C23.5569 14.2593 23.6912 14.6623 23.9397 14.9937L26.237 18.0567C26.9826 19.0508 27.3856 20.2599 27.3856 21.5025V29.16C27.3856 29.4985 27.2511 29.8231 27.0118 30.0624C26.7725 30.3018 26.4478 30.4362 26.1094 30.4362H17.1757C16.8372 30.4362 16.5126 30.3018 16.2732 30.0624C16.0339 29.8231 15.8994 29.4985 15.8994 29.16V25.3313" stroke="#d4af37" stroke-width="1.7995" stroke-linecap="round" stroke-linejoin="round"/>
<path d="M16.5308 24.0855L20.2783 27.3904C20.5623 27.6408 20.9341 27.7682 21.3119 27.7445C21.6898 27.7208 22.0428 27.5479 22.2932 27.2639C22.5437 26.98 22.671 26.6081 22.6473 26.2303C22.6236 25.8524 22.4507 25.4994 22.1668 25.249L18.4193 21.9441M20.7702 18.3071C18.375 16.1948 14.7427 16.4006 12.6569 18.7657C10.571 21.1309 10.8211 24.7605 13.2163 26.8728C13.344 26.9855 13.5114 27.0428 13.6814 27.0321C13.8514 27.0214 14.0103 26.9436 14.123 26.8159L20.8271 19.2138C20.9398 19.086 20.9971 18.9187 20.9864 18.7487C20.9758 18.5786 20.898 18.4198 20.7702 18.3071Z" stroke="#d4af37" stroke-width="1.7995" stroke-linecap="round" stroke-linejoin="round"/>
</svg>
