<svg width="36" height="37" viewBox="0 0 36 37" fill="none" xmlns="http://www.w3.org/2000/svg">
<path d="M14.6764 11.6882V12.5879C14.7731 12.5879 14.8691 12.5723 14.9609 12.5417L14.6764 11.6882ZM21.0576 11.6882L20.7731 12.5417C20.8648 12.5723 20.9609 12.5879 21.0576 12.5879V11.6882ZM15.9527 6.58331L15.053 6.58348L15.9527 6.58331ZM11.2245 12.9644V29.2365H13.024V12.9644H11.2245ZM13.4005 31.4125H22.3342V29.613H13.4005V31.4125ZM24.5102 29.2365V12.9644H22.7107V29.2365H24.5102ZM14.6764 10.7884H13.4005V12.5879H14.6764V10.7884ZM16.3062 10.1965L14.3918 10.8346L14.9609 12.5417L16.8753 11.9036L16.3062 10.1965ZM17.4905 11.05V9.77375H15.691V11.05H17.4905ZM16.5908 6.84482H19.1432V5.04532H16.5908V6.84482ZM19.1432 10.1503H16.5907V11.9498H19.1432V10.1503ZM18.2435 9.7738V11.05H20.043V9.7738H18.2435ZM22.3342 10.7884H21.0576V12.5879H22.3342V10.7884ZM21.3421 10.8346L19.4277 10.1965L18.8587 11.9036L20.7731 12.5417L21.3421 10.8346ZM16.8524 9.13588L16.8527 8.01921L15.0532 8.01872L15.0529 9.13539L16.8524 9.13588ZM16.8527 8.01879L16.8525 6.58314L15.053 6.58348L15.0532 8.01913L16.8527 8.01879ZM18.8816 6.58319V8.01896H20.6811V6.58319H18.8816ZM18.8816 8.01896V9.13568H20.6811V8.01896H18.8816ZM15.953 8.91872H19.7813V7.11921H15.953V8.91872ZM19.4623 10.3545C20.1354 10.3545 20.6811 9.80881 20.6811 9.13568H18.8816C18.8816 8.81497 19.1416 8.55499 19.4623 8.55499V10.3545ZM19.1432 6.84482C18.9987 6.84482 18.8816 6.72768 18.8816 6.58319H20.6811C20.6811 5.73385 19.9926 5.04532 19.1432 5.04532V6.84482ZM16.5908 5.04532C15.7414 5.04532 15.0528 5.73402 15.053 6.58348L16.8525 6.58314C16.8525 6.72765 16.7354 6.84482 16.5908 6.84482V5.04532ZM16.2717 8.55499C16.5925 8.55499 16.8525 8.81509 16.8524 9.13588L15.0529 9.13539C15.0528 9.80863 15.5985 10.3545 16.2717 10.3545V8.55499ZM24.5102 12.9644C24.5102 11.7626 23.536 10.7884 22.3342 10.7884V12.5879C22.5421 12.5879 22.7107 12.7565 22.7107 12.9644H24.5102ZM22.3342 31.4125C23.536 31.4125 24.5102 30.4383 24.5102 29.2365H22.7107C22.7107 29.4444 22.5421 29.613 22.3342 29.613V31.4125ZM17.4905 9.77375C17.4905 9.10065 16.9448 8.55499 16.2717 8.55499V10.3545C15.951 10.3545 15.691 10.0945 15.691 9.77375H17.4905ZM11.2245 29.2365C11.2245 30.4383 12.1987 31.4125 13.4005 31.4125V29.613C13.1926 29.613 13.024 29.4444 13.024 29.2365H11.2245ZM19.4623 8.55499C18.7891 8.55499 18.2435 9.10067 18.2435 9.7738H20.043C20.043 10.0945 19.783 10.3545 19.4623 10.3545V8.55499ZM13.024 12.9644C13.024 12.7565 13.1926 12.5879 13.4005 12.5879V10.7884C12.1987 10.7884 11.2245 11.7626 11.2245 12.9644H13.024Z" fill="#d4af37"/>
<path d="M21.0582 15.8358V25.4076C21.0582 25.7601 20.7725 26.0458 20.42 26.0458H15.3151C14.9626 26.0458 14.6769 25.7601 14.6769 25.4076V15.8358C14.6769 15.4834 14.9626 15.1977 15.3151 15.1977H15.6341H20.42C20.7725 15.1977 21.0582 15.4834 21.0582 15.8358Z" stroke="#d4af37" stroke-width="1.27624"/>
</svg>
